<svg xmlns="http://www.w3.org/2000/svg" width="824.12" height="751.553" viewBox="0 0 824.12 751.553">
  <g id="Groupe_1640" data-name="Groupe 1640" transform="translate(-981.5 -258.609)">
    <path id="Tracé_1619" data-name="Tracé 1619" d="M301.863,168.681v5.576c0,6.948-6.62,12.58-14.785,12.58H14.785C6.62,186.837,0,181.2,0,174.257V162.624Z" transform="translate(1245.558 765.145)" fill="#425d98"/>
    <rect id="as" width="298.54" height="532.778" transform="translate(1237.46 328.111)" fill="#6e78f7"/>
    <g id="hero-img" transform="translate(981.5 258.609)">
      <path id="Tracé_1476" data-name="Tracé 1476" d="M1747.2,288.236c3.569-2.961,5.046-7.195,6.567-11.391,1.621-4.475,2.717-9.153,5.1-13.322,2.835-5.013,6.621-8.355,12.781-7.269v.928c-8.234.743-11.549,6.675-13.9,13.712-1.549,4.642-2.8,9.441-5.218,13.74a14.054,14.054,0,0,1-5.18,5.672C1747.3,289.61,1747.255,288.923,1747.2,288.236Z" transform="translate(-947.528 8.326)" fill="#6e78f7"/>
      <path id="Tracé_1477" data-name="Tracé 1477" d="M1229.82-28.73v.743h-51.63v-.743Z" transform="translate(-893.924 28.73)" fill="#fadde1"/>
      <path id="Tracé_1478" data-name="Tracé 1478" d="M1077.588,646.413c-2.636-.065-3.623-1.5-3.56-4.131.073-1.857-.136-3.714-.217-5.5-.788-6.768-.19-13.656-1.567-20.377.072-15.485-1.495-30.886-2.255-46.334q-.634-10.555-1.3-21.111-.616-11.669-1.241-23.339l-1.739-28.844v-1.857c.082-3.11.254-6.229-.688-9.284v-1.9a142.071,142.071,0,0,0-1.051-19.5c-.226-10.212-.634-20.424-1.812-30.636,0-.928-.045-1.857-.072-2.739l.136-3.714c5.86-.093,11.775-.214,17.59-.269l76.666-.706q2.174,53.492,4.357,106.965,1.377,33.318,2.826,66.656c.38,13.8.589,27.6,1.223,41.377.308,6.8.67,6.786-5.634,6.879-8.94-.566-17.871-1.151-26.811-1.7-.843-.056-1.812-.269-2.292.854-2.645-.167-2.409-2.507-2.563-4.094-2.536-25.344-4.927-50.707-7.4-76.06-1.359-13.814-2.817-27.628-4.23-41.432l-3.07-34.72-.806.065v34.563c-.063,1.7-.181,3.388-.181,5.087,0,36.614-.063,73.228.054,109.852,0,4.642-1.377,7.427-6.169,7.742Z" transform="translate(-882.987 -3.864)" fill="#2e2c3f"/>
      <path id="Tracé_1479" data-name="Tracé 1479" d="M1154.1,412.97l-76.667.706c-5.861.056-11.73.176-17.59.269-2.717.186-3.623-1.263-3.623-3.908.09-3.964,0-7.928,0-11.892q-.054-8.8-.091-17.639c0-10.268-.054-20.526.073-30.793a8.246,8.246,0,0,0-1.911-5.422h4.882c6.15.854,12.31,2.182,18.27-.928,3.233.594,6.458,1.253,9.7,1.773,2.917.464,4.855-.316,5.344-3.843.543-3.936,1.694-7.77,2.437-11.679.3-1.6.987-3.713-.734-4.688-4.828-2.785-8.8-7.817-15.281-6.675q-.317-6.006-.616-11.994c-.181-3.9-2.246-5.96-5.969-6.1-4.058-.158-8.152-.241-12.174-.093-4.429.176-6.087,2.126-6.059,6.8,0,4.159.181,8.355.281,12.477-4.176,2.525-5.969,6.173-5.435,11.187a79.262,79.262,0,0,1,0,8.309l-1.893-1.123-1.812-1.857c-2.917-3.361-5.915-6.656-7.246-11.14l-.652-1.931c-.715-3.769.76-7.371.833-11.085.842-.659.77-1.634.852-2.553,2.237-2.46,2.835-5.756,4.185-8.671l.462-2.5c3.624-5.487,5.516-11.772,7.917-17.834a105.058,105.058,0,0,0,5.5-13.071c4.737-13.535,14.094-21.742,27.7-24.935,1.313-.306,2.717-.325,3.795-1.244a47.264,47.264,0,0,1,.127,5.988c-.906,8.652,5.942,14.464,13.315,14.631,7.636.176,12.98-6.081,13.007-14.538,0-2,.063-3.992.1-6a38.484,38.484,0,0,1,28.7,12.254c6.2,7.018,8.152,16.042,11.024,24.6,4.882,14.4,8.976,29.076,14.492,43.271a34.176,34.176,0,0,0,3.623,10.843c.3,4.642,2.717,8.717,3.677,13.2.444,6.87-2.718,12.069-7.355,16.552-3.9,1.625-7.718,3.509-12.138,3-2.056-.242-3.052,1.03-3.071,3.082a43.717,43.717,0,0,0,.063,5.57c1.413,12.486.344,25.01.67,37.515A5.932,5.932,0,0,1,1154.1,412.97Z" transform="translate(-880.636 9.411)" fill="#fda9b4"/>
      <path id="Tracé_1480" data-name="Tracé 1480" d="M1035.184,337.335l1.893,1.123c1.3,2.321,2.418,4.818,5.353,5.449a8.245,8.245,0,0,1,1.911,5.421c-.127,10.268-.073,20.526-.073,30.793l-121.3-.046c-9.293,0-11.776-2.525-11.776-12.069V246.941c0-8.049,2.717-10.8,10.625-10.8h96.413c1.812,0,3.968.8,5.507-1.1a35.084,35.084,0,0,0,5.553,8.3,7.778,7.778,0,0,1,1.866,8c-2.826,11.214.489,20.628,8.6,28.435-2.4,6.062-4.293,12.347-7.917,17.834-6.929,0-13.859-.093-20.779-.093-1.15,0-2.98-.371-3.071,1.086-.109,1.912,1.812,1.513,3.062,1.513h20.326c-1.349,2.915-1.947,6.211-4.185,8.661-5.7,0-11.395-.074-17.083-.084-.906,0-2.1.065-2.192,1.123-.145,1.523,1.25,1.467,2.237,1.476,5.435.046,10.788,0,16.187.046-.072,3.713-1.549,7.315-.833,11.084-5.616.5-11.322-.52-16.9.566v1.365h17.554c1.3,4.456,4.3,7.752,7.246,11.14h-25.58v1.857Zm-66.123-24.982q11.449,0,22.907.046c1.92,0,3.913,0,3.27-2.841-1.359-5.988-2.817-11.966-7.908-16.051-2.717-4.725-12.781-9.748-17.8-9.061-2.219.306-2.129,1.745-2.138,3.323v21.352C967.4,310.45,967.177,311.982,969.061,312.353Zm-36.105,4.2a29.485,29.485,0,0,0,.4,6.907c4.293,18.084,20.589,28.7,38.378,24.917,12.228-2.6,23.206-15.076,24.583-27.776.362-3.324-.5-4.707-4.094-4.642-9.194.223-18.406,0-27.609,0v-28.7c0-1.773.48-3.936-2.554-3.621C942.232,285.719,931.9,303.107,932.956,316.549Zm17.917-61.782c3.243,0,4.529-1.95,4.384-4.465-.127-2.247-1.422-4.094-4.139-3.88s-4.475,1.625-4.357,4.3C946.887,253.208,948.346,255.055,950.873,254.767Zm-24.456-8.355c-2.047.1-4.085,1.337-4.1,3.964,0,2.488,1.812,4.1,4.339,4.326,2.917.26,4.185-1.782,4.157-4.215.018-2.172-1.15-4.131-4.348-4.076Zm16.468,4.057c-.19-2.516-1.477-3.992-3.958-4.029-2.717,0-4.194,1.485-4.176,4.233a3.678,3.678,0,0,0,3.922,4.038c2.781.065,4.094-1.513,4.257-4.243Z" transform="translate(-868.772 9.831)" fill="#c1ccfa"/>
      <path id="Tracé_1481" data-name="Tracé 1481" d="M1480,295.3h31.485c7.137,0,7.137,0,7.246,7.427a18.112,18.112,0,0,0,.064,1.857v54.773c0,13.405-.163,26.8,0,40.2.055,3.992-1.15,5.431-5.145,5.357-11.268-.214-22.536-.065-33.8-.056l-9.121.149-9.058-.1h-24.4q-15.326,0-30.661-.056c-8.207,0-8.207,0-8.352-8.355V335.358l.054-33.309c0-6.146.535-6.7,6.341-6.712h75.434Z" transform="translate(-914.655 5.513)" fill="#f7c8d0"/>
      <path id="Tracé_1482" data-name="Tracé 1482" d="M1169.315,667.362v-5.749c.688-.9,5.489.265,5.384-2.329-.637-15.443-.571-30.55-.953-46.014h269.389c0,90.9.456,88.2.456,88.2-197.322-.558-262.057-.558-262.057-.558h-12.218l-.027-5.37Zm129.061,1.249h27.292c7.168,0,11.881-5.006,11.935-12.4.055-7.763-4.549-12.841-12.036-12.862q-27.019-.093-54.055,0a12.1,12.1,0,0,0-12.09,12.415c0,7.378,5.085,12.81,12.191,12.862C1280.509,668.653,1289.443,668.611,1298.376,668.611Z" transform="translate(-893.083 -17.269)" fill="#5777ba"/>
      <path id="Tracé_1483" data-name="Tracé 1483" d="M1553.376,444.716c-.353-17.3-.906-34.59-1.005-51.895-.064-10.685,7.49-18.567,17.79-18.855q44.321-1.1,88.641-1.857c10.743-.167,18.234,7.52,18.487,18.456.417,17.741.752,35.491,1.133,53.232-1.422.353-1.6,1.745-2.129,2.785-3.4,6.656-8.968,9.757-16.06,10.063-5.435.223-10.87.158-16.3,0a7.339,7.339,0,0,0-5.969,2.525c-6.513,6.861-13.207,13.545-19.72,20.424-1.811,1.857-3.016,2.432-5.09.241q-9.411-9.952-19.448-19.291c-2.509-2.339-5.018-3.528-8.07-2.785a44.82,44.82,0,0,1-11.658.743c-8.732-.223-15.924-3.138-19.076-12.421A1.918,1.918,0,0,0,1553.376,444.716Zm50.081-23.385c-8.886,3-14.746,8.81-16.3,18.567-1.078,6.7,1.875,10.37,8.56,10.388,11.159.046,22.319,0,33.514,0,7.428,0,10.444-3.351,9.665-10.917-1.024-9.887-6.622-15.782-15.87-18.344,7.41-11.28,7.3-19.616-.19-25.994a15.762,15.762,0,0,0-20.725.845Q1591.7,405.846,1603.457,421.331Z" transform="translate(-929.174 0.01)" fill="#5777ba"/>
      <path id="Tracé_1484" data-name="Tracé 1484" d="M933.012,145.825c-1.069-2.052-.471-4.252-.516-6.368-.344-14.519-.607-29.039-.906-43.549-.2-10.685,6.784-19.04,17.274-19.3,28.324-.752,56.666-1.188,85-1.458,8.968-.084,15.861,7.315,16.141,16.58.371,12.653.543,25.325.833,37.988.118,5.078.308,10.156.462,15.234-.444.362-1.105.631-1.3,1.1-3.478,8.123-9.62,11.874-18.116,11.836-4.375,0-8.759.13-13.125-.056a7.653,7.653,0,0,0-6.341,2.683c-5.643,6.016-11.585,11.744-17.156,17.824-2.636,2.878-4.656,3.481-7.246.139a56.4,56.4,0,0,0-4.774-4.939c-4.728-4.762-8.759-10.982-14.411-13.851s-13.025-.752-19.629-.789c-4.366,0-7.772-1.782-11-4.54C935.466,152.064,934.86,148.573,933.012,145.825ZM962.387,114a21.144,21.144,0,0,0,6.558,14.278c4.71,4.772,9.529,9.46,14.61,13.8,9.665,8.29,6.34,8.884,16.3-.065,6.341-5.681,13.134-10.945,17.844-18.27,4.9-7.622,3.623-16.636-2.844-22.058s-15.054-5.106-21.3,1.17c-1.9,1.922-2.591,1.634-4.375-.111-5.009-4.883-10.978-6.322-17.464-3.388C965.62,102.1,962.831,107.308,962.387,114Z" transform="translate(-870.693 21.287)" fill="#5777ba"/>
      <path id="Tracé_1486" data-name="Tracé 1486" d="M1051.367,272.118c-8.152-7.807-11.431-17.221-8.6-28.435a7.877,7.877,0,0,0-1.866-8,35.068,35.068,0,0,1-5.553-8.3q-5.544-22.345,14.194-33.94a60.54,60.54,0,0,0,7.59-4.985c4.583-3.713,8.089-7.612,9.339-14.371a33.19,33.19,0,0,1,53.061-20.563c.906.724,1.812,1.513,3.5,2.869V133.45c0-1.9-.643-4.122,1.676-5.31,1.377,1.411.833,3.2.851,4.837.055,7.25,0,14.51,0,21.761,0,1.485-.453,3.166,1.133,4.215,3.125,2.079,4.692,5.57,7.083,8.281,1.7,6.183,5.109,10.973,10.788,13.925,1.1.808,2.183,1.643,3.3,2.423,15.815,11.14,18.551,27.321,6.8,42.76-4.529,5.886-7.654,12.431-11.1,18.883a38.483,38.483,0,0,0-28.7-12.254c0-1.782-.082-3.565-.127-5.347,5.625-5.254,7.726-12,7.944-19.56h3.161c3.515,0,6.2-1.495,7.536-4.837a7.072,7.072,0,0,0-1.395-7.752c-2.437-2.627-5.262-3.036-8.614-1.736a7.735,7.735,0,0,1-6.308-.493,8.073,8.073,0,0,1-3.936-5.077c-.688-2.432-.96-4.995-1.476-7.807a35.415,35.415,0,0,1-17.781,7.705c-3.886.5-8.152,1.9-7.428-5.1-2.772,1.643-3.976,5.069-7.165,4.382-2.926-.622-3.3.641-3.2,3.147.3,7.25.236,14.519.7,21.76.435,6.758,3.152,12.449,8.84,16.339a2.2,2.2,0,0,0,1.812,1.216h-.109l1.069,1.55v1.55c-1.114.928-2.482.928-3.795,1.244-13.587,3.193-22.962,11.4-27.7,24.935a105.029,105.029,0,0,1-5.516,13.025Z" transform="translate(-880.353 17.49)" fill="#2e2c3f"/>
      <path id="Tracé_1487" data-name="Tracé 1487" d="M1143.247,156.048c-2.391-2.729-3.958-6.2-7.083-8.281-1.585-1.049-1.123-2.729-1.132-4.215V121.792c0-1.634.525-3.426-.852-4.837.906-7.8.326-15.633.389-23.45.073-9.822-.118-19.644-.19-29.466q0-13.925-.072-27.851c.172-6.925.462-13.842.48-20.758C1134.86-9.374,1150-26.131,1174.1-27.96h51.63c1.812.056,3.623.149,5.435.149q91.612,0,183.242.046c19.764,0,35.58,12.756,40.009,32.214.779,3.435.834,7.037,1.223,10.565a100.845,100.845,0,0,0,0,20.424V62.266a119.24,119.24,0,0,0,0,23.3c0,7.705-1.078,15.4-.118,23.116-.752,2.581-.245,5.217-.344,7.826-.308,16.766-.552,33.541.127,50.317.145,5.078-.679,10.212.227,15.234a136.489,136.489,0,0,0,0,23.209,194.426,194.426,0,0,0-.136,26.922c-.607,11.456-.38,22.912,0,34.349l-.217,5.57h-9.348c0-84.9-.145-169.8.136-254.7.063-19.365-16.522-38.814-38.044-38.777q-113.379.186-226.784,0a34.15,34.15,0,0,0-8.469,1.04c-15.018,3.816-28.514,19.913-28.478,34.479.091,45.433-1.576,90.848-.906,136.282C1143.292,152.335,1143.256,154.192,1143.247,156.048Z" transform="translate(-889.778 28.675)" fill="#425d98"/>
      <path id="Tracé_1488" data-name="Tracé 1488" d="M1046.25,410.279c0,3.964.1,7.928,0,11.892-.055,2.646.906,4.094,3.623,3.908l-.136,3.713h-8.976c-.824,0-2.056-.241-2.138,1-.09,1.4,1.16,1.643,2.21,1.671,2.989.065,5.978,0,8.977.046,1.141,10.165,1.549,20.377,1.811,30.636h-49.094c-6.069,0-8.224,2.089-8.913,8.42H940.244c-6.585,0-8.985-2.46-8.994-9.163V420.222c0-6.74,3.1-9.915,9.674-9.915Q993.569,410.261,1046.25,410.279Zm-72.464,31.137c0-8.884-6.1-15.178-14.492-15.429-8.814-.26-14.864,6.61-15.317,15.308-.408,7.817,7.2,15.281,15.036,15.374a14.512,14.512,0,0,0,10.521-4.443,15.256,15.256,0,0,0,4.27-10.81Zm30.725-8.894h21.2c1.1,0,2.8.483,2.953-1.207.172-1.857-1.576-1.485-2.654-1.485q-21.431-.056-42.844,0c-1.105,0-2.835-.381-2.717,1.42s1.812,1.272,2.9,1.272c7.056.019,14.122,0,21.187,0Zm-23.786,8.8v.928h62.147v-.928Zm43.125,12.161v-.928H978.94v.928Z" transform="translate(-870.661 -2.724)" fill="#fadde1"/>
      <path id="Tracé_1490" data-name="Tracé 1490" d="M1593.308,208.138c2.255,5.189,4.792,10.258,5.552,16.014,2.509,18.92-5.7,35.212-22.708,44.886-.5-.668-.707-.39-.8.26v-.084c-.824-.093-1.558,0-1.875.928h.064c-1.576-.4-2.935.474-4.384.789a45.888,45.888,0,0,1-20.951-.121c-22.111-5.44-34.085-30.162-28.759-50.131,1.522-5.719,4.9-10.4,6.712-15.856l.091.149c.317-.316.625-.641.906-.928h0l.906-.975v.056l.906-1.2c4.194-4.335,9.339-7.213,14.557-9.97l.978-.808v.084c9.583-2.451,19.139-3.082,28.65.343C1581.478,195.1,1587.937,200.944,1593.308,208.138Z" transform="translate(-925.954 13.115)" fill="#6f8bf4"/>
      <path id="Tracé_1491" data-name="Tracé 1491" d="M1531.3,340.6V324.817h17.02v-1H1531.3V305.34h70.081c6.5,0,6.812.325,6.812,7.185v41.237c0,6.3,0,6.313-6.341,6.313h-70.534V342.363c4.583-.176,9.221.436,13.759-.353V340.6Zm60.335-16.014.19-.5h-32.609v.5Z" transform="translate(-927.189 4.794)" fill="#fff"/>
      <path id="Tracé_1492" data-name="Tracé 1492" d="M1000.05,475.67c.688-6.331,2.845-8.4,8.913-8.42h49.094a142.094,142.094,0,0,1,1.051,19.5c-3.152.408-6.5-.771-9.5,1.9h9.547c.906,3.036.77,6.155.688,9.283-3.406.186-6.893-.585-10.227.483v1.328h10.272l1.712,28.825h-45.036c-2.718,0-5.435.074-8.1,0-5.091-.2-8.3-3.583-8.315-8.782Q1000.068,497.654,1000.05,475.67Zm59.312,34.293a19.466,19.466,0,0,0-11.458,0C1051.7,511.254,1055.53,510.864,1059.362,509.963Zm-37.02-12.393c.715,1.773,1.467,3.5,3.5,3.713.371,0,1.25-.928,1.178-1.114C1026.191,498.164,1024.108,498.21,1022.342,497.57Zm11.694-4.7c-.064-.111-.1-.288-.19-.325a.7.7,0,0,0-.4.046l.263.51Z" transform="translate(-877.142 -6.807)" fill="#c1ccfa"/>
      <path id="Tracé_1494" data-name="Tracé 1494" d="M1157.74,665.112v25.065c-14.927,0-29.891.381-44.755.65-14.593.269-29.2-1.04-43.814-.566-6.169.2-12.328.585-18.5.7-4.384.083-4.945-.863-3.7-5.31,1.812-6.5,6.078-9.989,12.844-10.212,4.221-.167,8.46-.195,12.681,0,2.718.1,3.913-.706,3.687-3.648-.208-2.785-.063-5.57-.072-8.355l28.161,1.857v10.138c0,2.07.507,2.869,2.609,1.81,3.741-1.857,7.8-1.857,11.857-1.857,11.15,0,11.15,0,9.909-11.14.462-1.123,1.45-.928,2.292-.854C1139.869,663.952,1148.8,664.546,1157.74,665.112Z" transform="translate(-881.509 -20.855)" fill="#fda9b4"/>
      <path id="Tracé_1495" data-name="Tracé 1495" d="M1488.946,38.744a100.881,100.881,0,0,1,0-20.424c41.594,3.286,73.37,22.949,95.109,59.647.381.65.906,1.244,1.3,1.857a140.041,140.041,0,0,1-17.21,9.116c-1.069-1.476-2.228-2.887-3.188-4.437a100.1,100.1,0,0,0-23.469-25.994A91.977,91.977,0,0,0,1488.946,38.744Z" transform="translate(-923.15 25.359)" fill="#fda9b4"/>
      <path id="Tracé_1496" data-name="Tracé 1496" d="M1599.008,201.119c-5.371-7.195-11.829-13-20.1-16.534,9.347-20.331,11.847-41.5,7.038-63.425-1.539-6.99-2.88-14.167-7.246-20.117l18.342-9.813c2.717,7.984,6.34,15.717,7.826,24.137,5.154,28.473,5.507,56.7-4.891,84.248a9.4,9.4,0,0,1-.969,1.5Z" transform="translate(-931.655 20.135)" fill="#fda9b4"/>
      <path id="Tracé_1497" data-name="Tracé 1497" d="M1058.275,39.1c-4.674,0-9.348,0-14.013-.074-5.163-.084-6.984-1.977-7.047-7.353-.055-4.781-.073-9.571,0-14.362s1.92-6.972,6.467-6.981c21.25-.074,42.5,0,63.75-.046,3.17,0,5.688,1.458,5.7,4.642,0,7.993,1.024,16.033-.688,23.979Zm1.984-17.639c-1.73.613-3.333,1.708-3.034,4.1a3.544,3.544,0,0,0,3.895,3.185,3.591,3.591,0,0,0,3.107-3.993c-.218-2.079-1.622-3.184-3.968-3.333Zm31.776,0c-2.519-.1-3.623,1.6-3.741,3.713a3.468,3.468,0,0,0,1.028,2.534,3.3,3.3,0,0,0,2.513.947c2.11.046,3.152-1.532,3.3-3.639s-.779-3.583-3.1-3.583Zm-12.328,4.252c.136-3.026-.833-4.187-3.116-4.27a3.254,3.254,0,0,0-2.509.835,3.423,3.423,0,0,0-1.114,2.451,3.766,3.766,0,0,0,.995,2.747,3.581,3.581,0,0,0,2.628,1.152,3.047,3.047,0,0,0,3.116-2.943Z" transform="translate(-880.639 25.935)" fill="#fadde1"/>
      <path id="Tracé_1498" data-name="Tracé 1498" d="M992.971,660.2c-7.926-1.634-13.8-6.953-19.022-12.514a62.907,62.907,0,0,1-17.79-45.489c.3-25.065,16.422-48.655,39.475-57.233a60.272,60.272,0,0,1,42.8-.158c1.151.418,2.31.733,3.034,1.857q-1.939,5.106-3.9,10.212c-9.565-3.6-19.221-5.57-29.547-3.648-27.5,5.013-46.032,33.142-39.638,60.965,3.832,16.71,13.587,28.584,28.732,35.862Q995.018,655.119,992.971,660.2Z" transform="translate(-873.008 -12.087)" fill="#fda9b4"/>
      <path id="Tracé_1499" data-name="Tracé 1499" d="M1060.25,41.3l54.176-.232,12.681.093q0,13.925.072,27.851-31.345,0-62.672.1c-3.17,0-5.625-1.077-5.933-4.3a116.593,116.593,0,0,1,0-20.275C1058.646,43.409,1059.661,42.37,1060.25,41.3Z" transform="translate(-882.614 23.729)" fill="#fda9b4"/>
      <path id="Tracé_1500" data-name="Tracé 1500" d="M1588.878,87.835l-18.343,9.813c-7.636,3.426-14.855,7.668-22.174,11.716l-20.1,10.695a204.305,204.305,0,0,0-19.81,10.537l-16.132,8.253v-7.427q6.694-3.648,13.414-7.278c6.449-3.212,12.953-6.3,19.021-10.212a226.173,226.173,0,0,0,20.906-11.14A252.51,252.51,0,0,0,1568.4,90.722a140.1,140.1,0,0,0,17.21-9.116c6.467-3.314,12.907-6.656,19.393-9.924,2.31-1.16,3.043-3.453,3.623-5.57,2.047-7.278,6.2-12.319,13.225-15.141,3.895-1.56,7.418-4.075,11.159-6.071,4.529-2.386,7.663-.659,7.409,4.438-.226,4.512.8,7.547,5.063,9.664,3.75,1.857,3.623,5.886,0,7.947-7.11,4.057-14.366,7.826-21.5,11.818-2.337,1.3-4.529.566-6.513-.371-4.982-2.349-9.42-1.643-14.013,1.253C1598.823,82.682,1593.787,85.142,1588.878,87.835Z" transform="translate(-923.517 23.53)" fill="#5777ba"/>
      <path id="Tracé_1501" data-name="Tracé 1501" d="M1553.479,450.253a1.919,1.919,0,0,1,1.567,1.411c3.152,9.283,10.344,12.2,19.076,12.421,3.886.093,7.772.223,11.657-.743,3.052-.752,5.562.436,8.071,2.785q10.018,9.358,19.447,19.291c2.074,2.191,3.3,1.643,5.091-.241,6.512-6.861,13.206-13.545,19.719-20.424a7.34,7.34,0,0,1,5.969-2.525c5.435.149,10.87.214,16.3,0,7.092-.306,12.681-3.407,16.059-10.063.526-1.049.707-2.442,2.129-2.785.815,5.57.625,11.14-2.192,16.172-3.433,6.164-8.968,8.856-15.625,9.525-.6.065-1.2,0-1.811.065-6.341.306-13.351-1.857-18.723.928s-9.058,8.847-13.46,13.5c-2.518,2.664-5.163,5.217-7.446,8.077-2.164,2.711-3.623,3.166-6.34.325-5.715-6.146-11.947-11.781-17.726-17.852-2.718-2.869-5.526-4.326-9.511-3.843a113.3,113.3,0,0,1-12.183.557c-10.978.121-18.3-6.257-19.746-17.332a91.949,91.949,0,0,1-.326-9.246Z" transform="translate(-929.277 -5.526)" fill="#425d98"/>
      <path id="Tracé_1502" data-name="Tracé 1502" d="M933.134,151.213c1.812,2.785,2.455,6.239,5.145,8.532,3.225,2.785,6.63,4.521,11,4.54,6.6,0,13.94-2.089,19.628.789s9.683,9.089,14.411,13.851a56.438,56.438,0,0,1,4.773,4.939c2.582,3.342,4.6,2.785,7.246-.139,5.57-6.081,11.513-11.809,17.156-17.824a7.653,7.653,0,0,1,6.34-2.683c4.366.186,8.75,0,13.125.056,8.532,0,14.674-3.713,18.116-11.836.2-.464.906-.733,1.3-1.1,1.811,14.436-8.152,23.654-19.928,22.178-11.485-1.448-20.751,1.7-27.554,11.883-2.6,3.9-6.495,6.861-9.583,10.444-1.748,2.015-2.817,1.857-4.62,0-6.078-6.211-12.409-12.161-18.532-18.335a7.06,7.06,0,0,0-5.951-2.442c-4.2.269-8.46-.056-12.681.325a17.96,17.96,0,0,1-19.592-19.5A31.4,31.4,0,0,0,933.134,151.213Z" transform="translate(-870.815 15.9)" fill="#425d98"/>
      <path id="Tracé_1503" data-name="Tracé 1503" d="M1488.7,286.252c-.344-11.456-.57-22.912,0-34.349,7.971-.455,15.906-1.086,23.207-4.883,3.152,12.263,10.426,21.306,20.751,27.971-12.626,5.737-25.678,9.8-39.6,10.49A33.069,33.069,0,0,0,1488.7,286.252Z" transform="translate(-923.143 8.973)" fill="#fda9b4"/>
      <path id="Tracé_1504" data-name="Tracé 1504" d="M1470.307,687.154s-2.137-230.837-2.137-273.814l9.058.105c0,37.467-1,273.709-1,273.709Z" transform="translate(-920.242 -2.99)" fill="#5777ba"/>
      <path id="Tracé_1505" data-name="Tracé 1505" d="M1478.163,678.807s.059-154.9.059-156.388V413.439l9.121-.149c0,31.943.741,265.517.741,265.517Z" transform="translate(-922.173 -2.94)" fill="#425d98"/>
      <path id="Tracé_1506" data-name="Tracé 1506" d="M996.8,666.655l4.1-10.156c.86.269,1.721.52,2.572.808,15.653,5.32,30.535,3.862,44.529-5.32,7.944-5.217,13.251-12.858,18.116-20.9,1.377,6.721.779,13.61,1.567,20.377-4.257,2.144-6.856,6.322-10.7,9.051-17.3,12.329-35.96,14.8-55.914,8.606C999.491,668.642,997.887,668.141,996.8,666.655Z" transform="translate(-876.837 -18.546)" fill="#b7ade6"/>
      <path id="Tracé_1509" data-name="Tracé 1509" d="M1535.081,272.038c-10.326-6.666-17.6-15.708-20.752-27.962-.362-5.31-1.2-10.565-.226-15.94.788-4.373,2.718-8.355,3.741-12.626,2.853-2.961,4.1-7.334,7.907-9.451-1.812,5.459-5.19,10.138-6.712,15.856-5.326,19.941,6.649,44.663,28.759,50.131a45.889,45.889,0,0,0,20.951.121c1.449-.316,2.808-1.188,4.384-.789-9.9,6.591-20.48,6.5-31.349,3.286C1539.5,273.95,1537.319,272.911,1535.081,272.038Z" transform="translate(-925.526 11.907)" fill="#6280e6"/>
      <path id="Tracé_1510" data-name="Tracé 1510" d="M1046,557.312q1.956-5.115,3.9-10.212c6.793,1.736,11.775,6.665,17.273,10.546q.652,10.555,1.3,21.111C1063.3,569.055,1055.375,562.381,1046,557.312Z" transform="translate(-881.472 -12.528)" fill="#cecece"/>
      <path id="Tracé_1513" data-name="Tracé 1513" d="M900.692,512.914c-3.623,2.014-5.526,5.57-7.437,9.079-2.192,4.038-3.75,8.429-6.467,12.18a23.581,23.581,0,0,1-19.293,10.249c-1.114,0-2.482.464-3.134-1.1.852-1.6,2.373-1.077,3.623-1.086,9.148-.111,15.2-5.106,19.411-12.913,2.618-4.855,4.529-10.11,8.1-14.4,1.35-1.643,2.79-3.277,4.946-3.9C900.51,511.67,900.6,512.292,900.692,512.914Z" transform="translate(-864.36 -9.943)" fill="#6f8bf4"/>
      <path id="Tracé_1514" data-name="Tracé 1514" d="M981.043,495.856c-4.755,2.349-6.621,6.907-8.306,11.558-1.975,5.468-2.971,11.3-5.58,16.534-1.812,3.583-3.859,6.981-7.917,8.355v-1.717c5.236-3.6,7.2-9.283,8.958-15.039,1.485-4.837,2.636-9.8,5.027-14.287,1.748-3.286,3.841-6.294,7.7-7.269C980.961,494.612,981,495.243,981.043,495.856Z" transform="translate(-873.298 -8.723)" fill="#6f8bf4"/>
      <path id="Tracé_1515" data-name="Tracé 1515" d="M904.443,512.439c-.091-.622-.181-1.244-.263-1.857.208-3.713,1.947-6.136,5.652-6.192,3.306,0,4.955,2.2,5.29,5.487-.063.594-.118,1.2-.172,1.8C911.091,516.366,909.307,516.5,904.443,512.439Z" transform="translate(-868.112 -9.468)" fill="#fda9b4"/>
      <path id="Tracé_1516" data-name="Tracé 1516" d="M983.3,495.4c0-.622-.082-1.253-.127-1.857a5.845,5.845,0,0,1,5-5.728,4.294,4.294,0,0,1,5.109,2.831c.607,1.745,2.545,3.4,0,5.57-2.337,2.015-4.529,3.054-7.247,1.6A14.684,14.684,0,0,1,983.3,495.4Z" transform="translate(-875.553 -8.271)" fill="#fda9b4"/>
      <path id="Tracé_1517" data-name="Tracé 1517" d="M958.18,533.212v1.717c.127,3.361-.5,6.192-4.529,6.5-3.7.241-5.571-1.578-5.571-5.385,0-.557.063-1.114.1-1.671C951.631,529.694,952.8,529.554,958.18,533.212Z" transform="translate(-872.247 -11.349)" fill="#9a88f0"/>
      <path id="Tracé_1518" data-name="Tracé 1518" d="M1712.392,257.887c-4.665,4.837-6.531,4.827-10.652-.065a14.654,14.654,0,0,1,.073-1.782c.126-3.333,1.63-5.691,5.036-5.57,3.089.111,5.227,1.9,5.389,5.412C1712.293,256.532,1712.347,257.219,1712.392,257.887Z" transform="translate(-943.246 8.726)" fill="#fda9b4"/>
      <path id="Tracé_1519" data-name="Tracé 1519" d="M1713.484,258.306c0-.668-.1-1.327-.154-2,5.308,1.606,7.917,5.886,9.719,10.722,1.712,4.577,2.944,9.339,4.529,13.99,1.178,3.565,2.844,6.8,6.44,8.457v2.274c-5.253-2.247-7.346-6.99-8.967-12.069-1.495-4.642-2.509-9.478-4.529-13.925C1718.973,262.437,1716.944,259.671,1713.484,258.306Z" transform="translate(-944.337 8.307)" fill="#6e78f7"/>
      <path id="Tracé_1520" data-name="Tracé 1520" d="M1736.16,294.059v-2.274c2.862-4.642,6.34-3.76,10.036-1.225.054.687.1,1.374.145,2.07.254,3.528-.906,6.3-4.638,6.591C1738.425,299.481,1736.26,297.726,1736.16,294.059Z" transform="translate(-946.488 6.002)" fill="#0035fb"/>
      <path id="Tracé_1521" data-name="Tracé 1521" d="M1700.128,256.47c0,.594-.055,1.188-.072,1.782-4.855,2.729-6.974,7.427-8.714,12.486-2.047,5.941-3.143,12.263-6.449,17.741a1.475,1.475,0,0,1-.958-.944,1.528,1.528,0,0,1,.188-1.349c2.718-5.876,3.841-12.347,6.233-18.344C1692.32,262.931,1694.584,258.2,1700.128,256.47Z" transform="translate(-941.561 8.296)" fill="#6e78f7"/>
      <path id="Tracé_1522" data-name="Tracé 1522" d="M945.174,532.868c0,.557-.064,1.114-.1,1.671-7.446-.492-12.3-5.2-16.549-10.8-3.515-4.642-6.748-9.506-12.446-11.651a17.077,17.077,0,0,1,.163-1.8c5.281,1.4,8.659,5.3,11.712,9.553C932.393,526.016,937.185,531.642,945.174,532.868Z" transform="translate(-869.232 -9.89)" fill="#6f8bf4"/>
      <path id="Tracé_1526" data-name="Tracé 1526" d="M1018.29,533.27h9.62C1024.368,538.432,1020.908,538.422,1018.29,533.27Z" transform="translate(-878.861 -11.537)" fill="#9a88f0"/>
      <path id="Tracé_1528" data-name="Tracé 1528" d="M1579.25,276.355c.317-.928,1.051-1.058,1.875-.928C1580.835,276.318,1580.038,276.374,1579.25,276.355Z" transform="translate(-931.706 6.94)" fill="#6280e6"/>
      <path id="Tracé_1529" data-name="Tracé 1529" d="M1581.3,275.43c.09-.65.3-.928.8-.26A.892.892,0,0,1,1581.3,275.43Z" transform="translate(-931.9 6.983)" fill="#6280e6"/>
      <path id="Tracé_1530" data-name="Tracé 1530" d="M1121.117,530.688l-3.877-.093v-34.6l.806-.065Z" transform="translate(-888.183 -8.861)" fill="#c1ccfa"/>
      <path id="Tracé_1531" data-name="Tracé 1531" d="M1060.966,434.038c-3,0-5.987,0-8.976-.046-1.051,0-2.3-.269-2.21-1.671.081-1.244,1.314-.993,2.138-1,3-.046,5.988,0,8.977,0C1060.921,432.21,1060.939,433.119,1060.966,434.038Z" transform="translate(-881.827 -4.231)" fill="#fefefe"/>
      <path id="Tracé_1532" data-name="Tracé 1532" d="M1065.021,502.083H1054.75v-1.328c3.333-1.068,6.821-.3,10.226-.483Z" transform="translate(-882.296 -9.166)" fill="#fefefe"/>
      <path id="Tracé_1533" data-name="Tracé 1533" d="M1064.307,490.153h-9.547c3-2.674,6.341-1.495,9.5-1.9C1064.28,488.881,1064.3,489.522,1064.307,490.153Z" transform="translate(-882.297 -8.311)" fill="#fefefe"/>
      <path id="Tracé_1534" data-name="Tracé 1534" d="M1055.515,350.287c-2.935-.631-4.058-3.129-5.353-5.449a79.5,79.5,0,0,0,0-8.309c-.5-5.013,1.3-8.661,5.435-11.187,3.107-.436,5.761.594,8.5,2.126,6.069,3.416,13.759,1.717,16.042-3.221,6.486-1.142,10.453,3.853,15.281,6.675,1.721,1.012,1.033,3.091.734,4.688-.743,3.908-1.893,7.742-2.437,11.679-.489,3.528-2.427,4.308-5.344,3.843-3.243-.52-6.468-1.179-9.7-1.773-6.223-2.609-12.228-.511-18.27.928Z" transform="translate(-881.856 3.451)" fill="#f4c4bb"/>
      <path id="Tracé_1535" data-name="Tracé 1535" d="M1080.679,322.85c-2.282,4.939-9.964,6.638-16.042,3.221-2.717-1.532-5.434-2.562-8.5-2.126-.1-4.159-.263-8.355-.281-12.477,0-4.642,1.63-6.628,6.06-6.8,4.049-.149,8.152-.065,12.174.093,3.723.139,5.788,2.2,5.969,6.1S1080.443,318.9,1080.679,322.85Z" transform="translate(-882.4 4.848)" fill="#2e2c3f"/>
      <path id="Tracé_1536" data-name="Tracé 1536" d="M1120.422,235.28c0,1.782.091,3.565.127,5.347,0,2.005-.09,4-.1,6,0,8.457-5.371,14.714-13.007,14.538-7.373-.167-14.194-5.979-13.315-14.631a47.286,47.286,0,0,0-.127-5.941v-1.55a3.726,3.726,0,0,1,2.138,2.2c2.545,4.967,6.7,6.768,11.938,6.109,5.027-.631,7.763-4.187,9.529-8.624A6.146,6.146,0,0,1,1120.422,235.28Z" transform="translate(-885.993 9.814)" fill="#f4c4bb"/>
      <path id="Tracé_1537" data-name="Tracé 1537" d="M1041.477,304.926c-6.775,0-13.587.046-20.326,0-1.232,0-3.17.4-3.062-1.513.091-1.457,1.92-1.086,3.071-1.086,6.92,0,13.85.056,20.779.093Z" transform="translate(-878.842 5.013)" fill="#fefefe"/>
      <path id="Tracé_1538" data-name="Tracé 1538" d="M1036.433,317.016c-5.435,0-10.788,0-16.186-.046-.987,0-2.382.046-2.237-1.476.091-1.058,1.3-1.133,2.192-1.123,5.688,0,11.385.056,17.083.084C1037.2,315.382,1037.275,316.357,1036.433,317.016Z" transform="translate(-878.834 4.147)" fill="#fefefe"/>
      <path id="Tracé_1539" data-name="Tracé 1539" d="M1045.237,345.087H1017.9V343.23h25.58C1044.05,343.843,1044.648,344.465,1045.237,345.087Z" transform="translate(-878.824 2.079)" fill="#fefefe"/>
      <path id="Tracé_1540" data-name="Tracé 1540" d="M1061.47,352.124c6.042-1.42,12.047-3.518,18.27-.928C1073.78,354.305,1067.621,352.978,1061.47,352.124Z" transform="translate(-882.929 1.597)" fill="#2e2c3f"/>
      <path id="Tracé_1541" data-name="Tracé 1541" d="M1036.324,331.091H1018.77v-1.365c5.58-1.086,11.286-.065,16.9-.566Z" transform="translate(-878.906 3.087)" fill="#fefefe"/>
      <path id="Tracé_1542" data-name="Tracé 1542" d="M966.872,322.25c9.2,0,18.415.2,27.609,0,3.623-.093,4.457,1.29,4.094,4.642-1.377,12.7-12.355,25.177-24.583,27.776-17.79,3.778-34.085-6.833-38.379-24.917a29.473,29.473,0,0,1-.4-6.9,203.617,203.617,0,0,0,31.658-.6Z" transform="translate(-871.03 3.583)" fill="#fefefe"/>
      <path id="Tracé_1543" data-name="Tracé 1543" d="M966.87,319.754a203.629,203.629,0,0,1-31.657.557c-1.06-13.452,9.275-30.84,29.085-32.873,3.034-.316,2.545,1.857,2.554,3.621Q966.9,305.41,966.87,319.754Z" transform="translate(-871.028 6.079)" fill="#9a88f0"/>
      <path id="Tracé_1544" data-name="Tracé 1544" d="M974.907,316.159c-1.911-.371-1.658-1.9-1.658-3.268V291.539c0-1.578-.082-3.017,2.138-3.323,5.018-.687,15.118,4.335,17.8,9.061A258.764,258.764,0,0,0,974.907,316.159Z" transform="translate(-874.617 6.026)" fill="#fadde1"/>
      <path id="Tracé_1545" data-name="Tracé 1545" d="M975.08,316.864A258.721,258.721,0,0,1,993.35,298c5.091,4.085,6.549,10.063,7.907,16.051.643,2.85-1.349,2.85-3.27,2.841Q986.538,316.864,975.08,316.864Z" transform="translate(-874.79 5.32)" fill="#fda9b4"/>
      <path id="Tracé_1546" data-name="Tracé 1546" d="M954.572,255.645c-2.554.288-4.013-1.56-4.112-4.048-.118-2.674,1.757-4.085,4.357-4.3s4.013,1.634,4.139,3.881C959.1,253.7,957.842,255.617,954.572,255.645Zm1.966-4.818a1.7,1.7,0,0,0-.612-1.244,1.61,1.61,0,0,0-1.317-.343c-1.676.13-1.812,1.365-1.7,2.674a1.744,1.744,0,0,0,.64,1.432,1.653,1.653,0,0,0,1.507.3c1.332-.2,1.567-1.263,1.513-2.822Z" transform="translate(-872.471 8.954)" fill="#fefefe"/>
      <path id="Tracé_1547" data-name="Tracé 1547" d="M927.623,247.29c3.2-.056,4.366,1.9,4.393,4.075,0,2.432-1.241,4.475-4.157,4.215-2.536-.223-4.357-1.857-4.339-4.326C923.538,248.627,925.576,247.392,927.623,247.29Zm2.573,4.382c-.38-1.216-.788-2.414-2.282-2.479s-2.038.928-2.011,2.377c0,1.225.462,2.117,1.811,2.135a2.131,2.131,0,0,0,2.482-2.042Z" transform="translate(-869.933 8.953)" fill="#fefefe"/>
      <path id="Tracé_1548" data-name="Tracé 1548" d="M945.384,251.349c-.163,2.729-1.477,4.308-4.212,4.243a3.687,3.687,0,0,1-3.922-4.038c0-2.785,1.476-4.28,4.176-4.233C943.908,247.357,945.176,248.88,945.384,251.349Zm-1.92,0c-.236-1.337-.969-2.209-2.373-2.042a2.184,2.184,0,0,0,.19,4.363,2.067,2.067,0,0,0,1.612-.66,2.176,2.176,0,0,0,.571-1.68Z" transform="translate(-871.227 8.951)" fill="#fefefe"/>
      <path id="Tracé_1549" data-name="Tracé 1549" d="M1437.558,272.647q0-106.278.172-212.592c0-4.373-1.477-4.967-5.19-4.957-43.17.1-86.349.427-129.528-.065-47.536-.557-95.109-.065-142.609-.548-4.765,0-5.689,1.4-5.661,5.969.217,36.661.172,73.34.2,109.982-5.679-2.934-9.058-7.724-10.788-13.925v-5.57c-.679-45.433.987-90.848.906-136.282,0-14.566,13.46-30.636,28.478-34.479a34.151,34.151,0,0,1,8.469-1.04q113.4.065,226.784,0c21.494,0,38.043,19.412,38.043,38.777-.281,84.9-.127,169.8-.136,254.7ZM1296.318,14.566h-25.362c-2.482,0-4.955.353-5.054,3.286s2.156,3.816,4.71,3.816c16.757,0,33.514.065,50.262,0,2.455,0,5.29-.52,5.045-3.9-.2-2.971-2.718-3.212-5.145-3.194-8.152,0-16.3-.028-24.456-.028Zm-37.962,3.073c-.353-2.507-1.812-4.178-4.683-4.038s-4.348,2.107-4.194,4.837a4.326,4.326,0,0,0,1.35,3.1,4.114,4.114,0,0,0,3.125,1.118c2.672-.1,4.4-1.7,4.4-5.032Zm-21.884.3c0,1.188.426,2.089,1.721,2.228a2.06,2.06,0,0,0,1.694-.335,2.163,2.163,0,0,0,.879-1.522,2.119,2.119,0,0,0-.4-1.743,2.011,2.011,0,0,0-1.57-.783,2.068,2.068,0,0,0-1.627.536,2.177,2.177,0,0,0-.7,1.6Z" transform="translate(-890.702 28.166)" fill="#5777ba"/>
      <path id="Tracé_1553" data-name="Tracé 1553" d="M1531.3,343.32h13.723v1.764H1531.26Z" transform="translate(-927.185 2.073)" fill="#292828"/>
      <path id="Tracé_1554" data-name="Tracé 1554" d="M1531.3,325.22h17.011v1H1531.3Z" transform="translate(-927.189 3.37)" fill="#1d1c1c"/>
      <path id="Tracé_1555" data-name="Tracé 1555" d="M1307.153,664.707h-26.685c-7.075,0-12.129-4.892-12.138-11.474,0-6.183,5.208-11.057,12.038-11.075q26.92-.055,53.822,0c7.41,0,12.038,4.549,11.984,11.475-.054,6.6-4.746,11.029-11.884,11.066C1325.241,664.744,1316.192,664.707,1307.153,664.707Zm.154-2.015h26.268c6.521,0,10.67-3.713,10.652-9.283,0-5.357-4.2-9.191-10.353-9.209q-26.712-.083-53.442,0c-6.069,0-9.674,3.509-9.746,9.126-.073,5.811,3.623,9.367,9.909,9.4C1289.508,662.73,1298.4,662.693,1307.307,662.693Z" transform="translate(-902.416 -19.337)" fill="#cbdcf8"/>
      <path id="Tracé_1556" data-name="Tracé 1556" d="M1357.046,687.25a4.462,4.462,0,0,0,.064.928H1183.45v-.928Z" transform="translate(-894.42 -22.569)" fill="#5777ba"/>
      <path id="Tracé_1557" data-name="Tracé 1557" d="M1607.047,422.831c-7.853-10.37-8.288-18.808-1.395-25.455a15.762,15.762,0,0,1,20.725-.845c7.491,6.35,7.6,14.687.19,25.994,9.248,2.534,14.846,8.457,15.87,18.344.779,7.566-2.237,10.908-9.665,10.917h-33.514c-6.685,0-9.638-3.713-8.56-10.388C1592.3,431.641,1598.2,425.83,1607.047,422.831Zm9.411,24.945h17.156c2.183,0,4.158-.362,4.674-3.221,1.567-8.615-4.927-17.369-13.587-17.852a126.963,126.963,0,0,0-14.438,0c-7.708.464-14.62,7.325-15.5,15-.526,4.6.534,5.979,5,6.053C1605.326,447.869,1610.879,447.776,1616.458,447.776Zm.082-26.616a11.561,11.561,0,0,0,8.307-3.536,12.15,12.15,0,0,0,3.405-8.533,11.779,11.779,0,1,0-23.551.158,12.068,12.068,0,0,0,3.476,8.511,11.483,11.483,0,0,0,8.363,3.418Z" transform="translate(-932.764 -1.49)" fill="#fefefe"/>
      <path id="Tracé_1558" data-name="Tracé 1558" d="M965.59,115.749c.444-6.731,3.234-11.939,9.366-14.7,6.486-2.934,12.455-1.495,17.464,3.388,1.812,1.745,2.473,2.033,4.375.111,6.214-6.257,14.746-6.554,21.268-1.114s7.744,14.436,2.844,22.058c-4.71,7.325-11.54,12.588-17.844,18.27-9.964,8.949-6.639,8.355-16.3.065-5.081-4.345-9.9-9.033-14.61-13.8A21,21,0,0,1,965.59,115.749Zm29.148.26c-.906-2.191-1.513-3.6-2.138-4.995a12.4,12.4,0,0,0-6.8-6.8,11.982,11.982,0,0,0-9.5.228c-5.779,2.534-8.506,9.534-6.2,16a18.817,18.817,0,0,0,4.737,7.26c5.833,5.57,11.776,11.029,17.663,16.6,1.812,1.764,3.161,1.43,4.909-.269,5.036-4.874,10.3-9.516,15.4-14.334a26.174,26.174,0,0,0,6.422-8.875,11.849,11.849,0,0,0-2.509-13.647c-3.741-3.927-8.469-4.642-13.361-2.887s-6.884,6.155-8.623,11.753Z" transform="translate(-873.896 19.54)" fill="#fefefe"/>
      <path id="Tracé_1560" data-name="Tracé 1560" d="M1090.007,232.607c-5.689-3.89-8.406-9.581-8.841-16.339-.462-7.241-.4-14.51-.7-21.761-.1-2.507.271-3.769,3.2-3.147,3.188.687,4.394-2.785,7.165-4.382-.688,7,3.542,5.57,7.427,5.1a35.412,35.412,0,0,0,17.781-7.705c.516,2.785.788,5.375,1.477,7.807a8.07,8.07,0,0,0,3.936,5.076,7.735,7.735,0,0,0,6.309.494c3.351-1.3,6.177-.928,8.614,1.736a7.072,7.072,0,0,1,1.395,7.752c-1.332,3.342-4.022,4.855-7.536,4.837h-3.161c-2.419-.1-2.382,1.55-2.527,3.388-.906,11.558-9.719,19.588-20.951,20.006-4.185.149-7.853-1.987-11.929-1.671h.109C1091.674,232.691,1090.912,232.6,1090.007,232.607Zm41.811-26.922c.317.232.643.455.978.659,0,0,.145-.214.226-.325l-1.168-.381c-.462-1.857,1.168-3.268.616-5.134-.8,1.578-4.61,2.572-.634,5.143Zm-33.026-1.151c-1.159,2.785-3.623,5.44-1.431,8.587.978,1.4,2.908,2.609,5.543.4-7.636-.659-3.261-5.719-4.148-9Z" transform="translate(-884.717 13.462)" fill="#f4c4bb"/>
      <path id="Tracé_1561" data-name="Tracé 1561" d="M1092.85,235.933c4.076-.316,7.745,1.857,11.93,1.671A21.284,21.284,0,0,0,1125.73,217.6c.145-1.857.109-3.491,2.527-3.388-.217,7.557-2.318,14.306-7.944,19.56a6.146,6.146,0,0,0-2.79,3.4c-1.766,4.437-4.529,7.993-9.529,8.624-5.235.659-9.393-1.142-11.938-6.109a3.724,3.724,0,0,0-2.138-2.2Z" transform="translate(-885.885 11.324)" fill="#fda9b4"/>
      <path id="Tracé_1562" data-name="Tracé 1562" d="M1091,236.33c.906,0,1.648.084,1.812,1.216A2.2,2.2,0,0,1,1091,236.33Z" transform="translate(-885.711 9.739)" fill="#fda9b4"/>
      <path id="Tracé_1563" data-name="Tracé 1563" d="M1523.361,199.5c-3.8,2.117-5.054,6.5-7.907,9.451-1.558.492-3.161.863-4.656,1.495-7.038,2.971-14.167,5.431-21.929,5.059a136.463,136.463,0,0,1,0-23.209c5.118.046,9.774-1.912,14.23-4.038,15.172-7.232,27.319-22.754,27.8-41.7.19-7.427-1.467-14.343-2.98-21.4L1548,114.46a73.322,73.322,0,0,1,6.114,27.581,77.6,77.6,0,0,1-5.027,28.779c-1.948,5.357-5.671,9.711-7.328,15.141v-.084l-.978.808c-5.218,2.785-10.362,5.635-14.556,9.98l-.906,1.188V197.8a.9.9,0,0,0-.657.288.941.941,0,0,0-.249.687h0a.917.917,0,0,0-.906.928Z" transform="translate(-923.145 18.471)" fill="#fda9b4"/>
      <path id="Tracé_1564" data-name="Tracé 1564" d="M1568.172,90.565c-7.464,4.252-14.891,8.55-22.736,12.069-4.855-5.811-8.949-12.264-14.619-17.4-11.975-10.815-25.58-17.527-41.757-18.056V40.35a91.7,91.7,0,0,1,52.482,19.783,100.1,100.1,0,0,1,23.469,25.994C1565.944,87.677,1567.1,89.088,1568.172,90.565Z" transform="translate(-923.21 23.78)" fill="#f7c8d0"/>
      <path id="Tracé_1565" data-name="Tracé 1565" d="M1527.894,125.94c1.512,7.055,3.17,14,2.98,21.4-.48,18.948-12.626,34.47-27.8,41.7-4.457,2.126-9.112,4.085-14.23,4.038-.906-5.059-.082-10.156-.227-15.234,4.846-.984,2.573-5.134,3.361-7.928a24.162,24.162,0,0,0,13.777-11.085c4.312-7.018,3.623-14.668,2.328-22.355A204.2,204.2,0,0,1,1527.894,125.94Z" transform="translate(-923.149 17.648)" fill="#f7c8d0"/>
      <path id="Tracé_1566" data-name="Tracé 1566" d="M1489,69.22c16.177.529,29.782,7.241,41.757,18.056,5.67,5.134,9.765,11.586,14.62,17.4a226.243,226.243,0,0,1-20.906,11.14c-.96-1.365-1.866-2.785-2.89-4.094-8.442-10.722-18.886-17.88-32.608-19.161A119.182,119.182,0,0,1,1489,69.22Z" transform="translate(-923.149 21.712)" fill="#fda9b4"/>
      <path id="Tracé_1567" data-name="Tracé 1567" d="M1488.949,94.32c13.723,1.281,24.167,8.439,32.608,19.161,1.024,1.309,1.929,2.729,2.889,4.094-6.1,3.881-12.609,6.972-19.022,10.212a3.092,3.092,0,0,1-2.282-1.216,24.138,24.138,0,0,0-14.266-9.107C1487.9,109.721,1488.949,102.025,1488.949,94.32Z" transform="translate(-923.153 19.914)" fill="#f7c8d0"/>
      <path id="Tracé_1568" data-name="Tracé 1568" d="M1488.875,222.794c7.763.371,14.891-2.089,21.929-5.06,1.495-.631,3.1-1,4.656-1.495-1,4.289-2.953,8.253-3.741,12.626-.969,5.375-.136,10.63.226,15.94-7.3,3.788-15.235,4.419-23.206,4.874a194.367,194.367,0,0,1,.136-26.885Z" transform="translate(-923.142 11.178)" fill="#f7c8d0"/>
      <path id="Tracé_1569" data-name="Tracé 1569" d="M1491.975,170.038c-.788,2.785,1.486,6.944-3.36,7.928-.679-16.775-.435-33.551-.127-50.317,2.5.343,3.433,1.857,3.351,4.382-.064,1.792.081,3.593.135,5.394v32.613Z" transform="translate(-923.127 17.526)" fill="#2e2c3f"/>
      <path id="Tracé_1570" data-name="Tracé 1570" d="M1492,136.822c-.054-1.8-.2-3.6-.136-5.394.081-2.488-.851-4.038-3.352-4.382.1-2.609-.408-5.245.344-7.826a24.133,24.133,0,0,1,14.276,9.107,3.092,3.092,0,0,0,2.282,1.216Q1498.7,133.182,1492,136.822Z" transform="translate(-923.151 18.129)" fill="#fda9b4"/>
      <path id="Tracé_1571" data-name="Tracé 1571" d="M975.13,442.629a15.255,15.255,0,0,1-4.258,10.8,14.513,14.513,0,0,1-10.5,4.456c-7.835-.093-15.444-7.557-15.036-15.373.453-8.7,6.5-15.569,15.317-15.309C969.034,427.45,975.139,433.744,975.13,442.629ZM954.3,441.7c1.5,1.857,2.409,5.208,4.909,3.713a25.408,25.408,0,0,0,8.044-8.476c-5.39.037-5.861,10.36-12.953,4.79Z" transform="translate(-871.987 -3.936)" fill="#fda9b4"/>
      <path id="Tracé_1572" data-name="Tracé 1572" d="M1009.644,434.03h-21.2c-1.114,0-2.817.436-2.9-1.272s1.639-1.42,2.717-1.42h42.844c1.078,0,2.826-.39,2.654,1.485-.154,1.69-1.812,1.2-2.953,1.207C1023.774,434.057,1016.754,434.03,1009.644,434.03Z" transform="translate(-875.776 -4.231)" fill="#fefefe"/>
      <path id="Tracé_1573" data-name="Tracé 1573" d="M985.89,443.72h62.138v.928H985.89Z" transform="translate(-875.809 -5.121)" fill="#fefefe"/>
      <path id="Tracé_1574" data-name="Tracé 1574" d="M1028.829,456.748H983.91v-.928h44.919Z" transform="translate(-875.622 -5.988)" fill="#fefefe"/>
      <path id="Tracé_1578" data-name="Tracé 1578" d="M1547.3,185c1.658-5.431,5.381-9.785,7.328-15.141a77.585,77.585,0,0,0,5.027-28.779,73.305,73.305,0,0,0-6.114-27.581c7.319-4.048,14.493-8.29,22.174-11.716,4.393,5.951,5.733,13.127,7.246,20.117,4.81,21.928,2.31,43.094-7.038,63.425C1566.44,181.915,1556.884,182.547,1547.3,185Z" transform="translate(-928.697 19.379)" fill="#f7c8d0"/>
      <path id="Tracé_1579" data-name="Tracé 1579" d="M1527.11,206.148a.917.917,0,0,1,.906-.928C1527.735,205.508,1527.427,205.833,1527.11,206.148Z" transform="translate(-926.795 11.968)" fill="#6280e6"/>
      <path id="Tracé_1580" data-name="Tracé 1580" d="M1528.11,205.145a.938.938,0,0,1,.249-.687.894.894,0,0,1,.656-.288Z" transform="translate(-926.888 12.043)" fill="#6280e6"/>
      <path id="Tracé_1581" data-name="Tracé 1581" d="M1529.11,204.138l.906-1.188Z" transform="translate(-926.983 12.13)" fill="#6280e6"/>
      <path id="Tracé_1582" data-name="Tracé 1582" d="M1546.2,192.138l.978-.808Z" transform="translate(-928.593 12.963)" fill="#f7c8d0"/>
      <path id="Tracé_1583" data-name="Tracé 1583" d="M1594.632,326.031H1562.25v-.5h32.608Z" transform="translate(-930.105 3.348)" fill="#1d1a1a"/>
      <path id="Tracé_1584" data-name="Tracé 1584" d="M1557.88,343.74h13.252v.928H1557.9C1557.889,344.334,1557.889,344.037,1557.88,343.74Z" transform="translate(-929.693 2.043)" fill="#100f0f"/>
      <path id="Tracé_1585" data-name="Tracé 1585" d="M1064.338,513.193c-3.831.928-7.663,1.29-11.458,0a19.464,19.464,0,0,1,11.458,0Z" transform="translate(-882.119 -10.037)" fill="#fefefe"/>
      <path id="Tracé_1586" data-name="Tracé 1586" d="M1024.66,499.91c1.766.641,3.849.594,4.674,2.59.072.186-.806,1.151-1.178,1.114C1026.127,503.41,1025.375,501.683,1024.66,499.91Z" transform="translate(-879.461 -9.147)" fill="#fefefe"/>
      <path id="Tracé_1587" data-name="Tracé 1587" d="M1037.509,494.824l-.326.232-.263-.511c.136,0,.29-.093.4-.046S1037.445,494.713,1037.509,494.824Z" transform="translate(-880.616 -8.758)" fill="#fefefe"/>
      <path id="Tracé_1588" data-name="Tracé 1588" d="M1062.341,22.28c2.346.149,3.75,1.253,3.968,3.3a3.591,3.591,0,0,1-3.107,3.992,3.545,3.545,0,0,1-3.9-3.185C1059.026,23.988,1060.611,22.893,1062.341,22.28Z" transform="translate(-882.722 25.075)" fill="#fefefe"/>
      <path id="Tracé_1589" data-name="Tracé 1589" d="M1097.351,22.29c2.319,0,3.243,1.318,3.1,3.556s-1.187,3.713-3.3,3.639a3.3,3.3,0,0,1-2.513-.947A3.469,3.469,0,0,1,1093.61,26C1093.682,23.877,1094.869,22.188,1097.351,22.29Z" transform="translate(-885.956 25.075)" fill="#fefefe"/>
      <path id="Tracé_1590" data-name="Tracé 1590" d="M1083.426,26.539a3.045,3.045,0,0,1-3.143,2.915,3.583,3.583,0,0,1-2.629-1.152,3.767,3.767,0,0,1-.995-2.747,3.424,3.424,0,0,1,1.114-2.451,3.255,3.255,0,0,1,2.51-.835C1082.592,22.352,1083.562,23.513,1083.426,26.539Z" transform="translate(-884.359 25.077)" fill="#fefefe"/>
      <path id="Tracé_1591" data-name="Tracé 1591" d="M1492.37,170.729V145.543l16.132-8.253c1.322,7.687,1.983,15.336-2.328,22.355A24.16,24.16,0,0,1,1492.37,170.729Z" transform="translate(-923.522 16.835)" fill="#fda9b4"/>
      <path id="Tracé_1592" data-name="Tracé 1592" d="M956.82,250.973c.054,1.56-.154,2.627-1.486,2.785a1.653,1.653,0,0,1-1.507-.3,1.745,1.745,0,0,1-.64-1.432c-.091-1.309,0-2.544,1.7-2.674a1.611,1.611,0,0,1,1.331.355,1.7,1.7,0,0,1,.6,1.269Z" transform="translate(-872.726 8.808)" fill="#c1ccfa"/>
      <path id="Tracé_1593" data-name="Tracé 1593" d="M930.443,251.808a2.129,2.129,0,0,1-2.482,2.033c-1.35-.019-1.812-.928-1.812-2.135,0-1.411.408-2.451,2.011-2.377S930.063,250.6,930.443,251.808Z" transform="translate(-870.181 8.808)" fill="#cbdcf8"/>
      <path id="Tracé_1594" data-name="Tracé 1594" d="M943.651,251.481a2.176,2.176,0,0,1-.579,1.667,2.066,2.066,0,0,1-1.6.654,2.184,2.184,0,0,1-.19-4.363C942.646,249.271,943.416,250.144,943.651,251.481Z" transform="translate(-871.414 8.801)" fill="#c1ccfa"/>
      <path id="Tracé_1595" data-name="Tracé 1595" d="M1309,17.279h24.457c2.418,0,4.945.223,5.145,3.194.245,3.379-2.59,3.89-5.045,3.9-16.748.065-33.515,0-50.263,0-2.554,0-4.81-1.012-4.71-3.816s2.573-3.3,5.055-3.286C1292.085,17.316,1300.536,17.279,1309,17.279Zm0,2H1284.1c-1.1,0-2.871-.529-2.989,1.142-.154,2.256,1.884,1.495,3.034,1.495q24.456.111,48.913.046c1.087,0,2.89.557,3-1.1.145-2.126-1.812-1.569-3.035-1.578-8.034-.019-16.024,0-24.021,0Z" transform="translate(-903.381 25.434)" fill="#cbdcf8"/>
      <path id="Tracé_1596" data-name="Tracé 1596" d="M1269.326,20.278c0,3.333-1.73,4.93-4.4,5.013a4.115,4.115,0,0,1-3.125-1.118,4.327,4.327,0,0,1-1.349-3.1c-.154-2.729,1.232-4.7,4.194-4.837S1268.972,17.771,1269.326,20.278Zm-2.02.149c-.326-1.318-1.032-2.219-2.455-2.182a2.255,2.255,0,0,0-1.811.768,2.38,2.38,0,0,0-.563,1.924,2.235,2.235,0,0,0,.7,1.653,2.123,2.123,0,0,0,1.67.566,2.483,2.483,0,0,0,1.784-.835,2.612,2.612,0,0,0,.653-1.895Z" transform="translate(-901.673 25.509)" fill="#cbdcf8"/>
      <path id="Tracé_1597" data-name="Tracé 1597" d="M1246.09,20.74a2.18,2.18,0,0,1,.679-1.636,2.07,2.07,0,0,1,1.648-.555,2.012,2.012,0,0,1,1.57.783,2.12,2.12,0,0,1,.4,1.743,2.165,2.165,0,0,1-.878,1.522,2.06,2.06,0,0,1-1.694.335C1246.516,22.829,1246.117,21.928,1246.09,20.74Z" transform="translate(-900.321 25.343)" fill="#cbdcf8"/>
      <path id="Tracé_1598" data-name="Tracé 1598" d="M1307.552,662.847h-26.7c-6.287,0-9.964-3.593-9.91-9.4.072-5.57,3.677-9.107,9.746-9.126q26.712-.084,53.442,0c6.15,0,10.335,3.852,10.354,9.209,0,5.645-4.131,9.284-10.652,9.284C1325.052,662.874,1316.284,662.847,1307.552,662.847Z" transform="translate(-902.662 -19.49)" fill="#5777ba"/>
      <path id="Tracé_1599" data-name="Tracé 1599" d="M1616.891,450.359c-5.571,0-11.133.074-16.7,0-4.465-.074-5.526-1.457-5-6.053.906-7.677,7.79-14.538,15.5-15a126.972,126.972,0,0,1,14.438,0c8.668.483,15.162,9.237,13.587,17.852-.516,2.859-2.491,3.2-4.674,3.221C1628.322,450.415,1622.606,450.359,1616.891,450.359Z" transform="translate(-933.196 -4.073)" fill="#5777ba"/>
      <path id="Tracé_1600" data-name="Tracé 1600" d="M1618.019,421.492a11.482,11.482,0,0,1-8.359-3.415,12.07,12.07,0,0,1-3.48-8.505,11.779,11.779,0,1,1,23.551-.158,12.15,12.15,0,0,1-3.4,8.539A11.561,11.561,0,0,1,1618.019,421.492Z" transform="translate(-934.243 -1.804)" fill="#5777ba"/>
      <path id="Tracé_1601" data-name="Tracé 1601" d="M995.126,116.342c1.739-5.57,3.8-9.98,8.66-11.716s9.592-1.077,13.36,2.887a11.817,11.817,0,0,1,2.509,13.647,26.174,26.174,0,0,1-6.422,8.875c-5.1,4.818-10.362,9.46-15.4,14.334-1.748,1.7-3.053,2.033-4.91.269-5.851-5.57-11.83-11.01-17.663-16.6a18.815,18.815,0,0,1-4.738-7.26c-2.31-6.5.417-13.47,6.2-16a11.982,11.982,0,0,1,9.5-.228,12.4,12.4,0,0,1,6.8,6.8C993.614,112.74,994.193,114.189,995.126,116.342Z" transform="translate(-874.284 19.243)" fill="#5777ba"/>
      <path id="Tracé_1603" data-name="Tracé 1603" d="M5.249,9.055C2.734,9.046.239,8.206-.067,5.786S1.9,2.836,3.652,2.062A20.5,20.5,0,0,0,6.077.869S9.7-1.591,11.12,1.119c1.235,2.376.073,4.413-1.822,6.061A6.918,6.918,0,0,1,5.249,9.055Z" transform="translate(215.125 230.572) rotate(21)" fill="#fefefe"/>
      <path id="Tracé_1606" data-name="Tracé 1606" d="M1100.421,206.07c.906,3.286-3.488,8.355,4.112,8.986-2.636,2.209-4.529,1-5.543-.4C1096.807,211.51,1099.261,208.855,1100.421,206.07Z" transform="translate(-886.381 11.907)" fill="#fda9b4"/>
      <path id="Tracé_1607" data-name="Tracé 1607" d="M1137,206.89c-3.976-2.572-.135-3.565.653-5.18.552,1.857-1.078,3.3-.616,5.134Z" transform="translate(-889.876 12.219)" fill="#fda9b4"/>
      <path id="Tracé_1608" data-name="Tracé 1608" d="M1137.216,207.24l1.168.381c-.082.111-.218.334-.226.325-.335-.2-.661-.427-.978-.659Z" transform="translate(-890.061 11.823)" fill="#fda9b4"/>
      <path id="Tracé_1609" data-name="Tracé 1609" d="M955.23,442.482c7.092,5.57,7.563-4.753,12.953-4.762a25.412,25.412,0,0,1-8.043,8.476C957.64,447.69,956.734,444.311,955.23,442.482Z" transform="translate(-872.921 -4.691)" fill="#fefefe"/>
      <path id="Tracé_1610" data-name="Tracé 1610" d="M1309.265,19.424h23.986c1.2,0,3.179-.548,3.034,1.578-.109,1.662-1.911,1.1-3,1.1q-24.457,0-48.913-.046c-1.151,0-3.188.761-3.034-1.495.118-1.671,1.884-1.133,2.989-1.142C1292.67,19.406,1300.958,19.424,1309.265,19.424Z" transform="translate(-903.641 25.285)" fill="#5777ba"/>
      <path id="Tracé_1611" data-name="Tracé 1611" d="M1267.5,20.581a2.612,2.612,0,0,1-.66,1.9,2.482,2.482,0,0,1-1.8.828,2.122,2.122,0,0,1-1.67-.566,2.236,2.236,0,0,1-.7-1.653,2.379,2.379,0,0,1,.563-1.924,2.256,2.256,0,0,1,1.811-.768C1266.481,18.363,1267.187,19.263,1267.5,20.581Z" transform="translate(-901.88 25.353)" fill="#5777ba"/>
      <path id="Tracé_1620" data-name="Tracé 1620" d="M2.955.048c2.627-.1,4.827.489,5.655,3.136.282.929-.05,1.361-1.448,1.14-2.346-.671-5.917.145-6.968-2.3C-.622.513,1.542.258,2.955.048Z" transform="matrix(0.978, -0.208, 0.208, 0.978, 201.473, 212.939)" fill="#2e2c3f"/>
      <path id="Tracé_1621" data-name="Tracé 1621" d="M2.909,4.253c2.627.1,4.828-.489,5.655-3.136.282-.929-.05-1.361-1.448-1.14C4.77.648,1.2-.168.148,2.274-.669,3.789,1.495,4.044,2.909,4.253Z" transform="matrix(-0.978, -0.208, 0.208, -0.978, 232.777, 217.136)" fill="#2e2c3f"/>
    </g>
    <text id="iCare_" data-name="iCare  " transform="translate(1308 565)" fill="#fff" font-size="56" font-family="Roboto-Regular, Roboto"><tspan x="0" y="53">iCare</tspan><tspan y="53" xml:space="preserve" fill="#6e78f7">  </tspan></text>
    <line id="Ligne_9" data-name="Ligne 9" x2="30" transform="translate(1623.5 596.5)" fill="none" stroke="#070707" stroke-width="1"/>
    <line id="Ligne_10" data-name="Ligne 10" x2="79" transform="translate(1484.5 575.5)" fill="none" stroke="#191717" stroke-width="1"/>
    <line id="Ligne_11" data-name="Ligne 11" x2="50" transform="translate(1474.5 594.5)" fill="none" stroke="#2b2828" stroke-width="1"/>
    <line id="Ligne_12" data-name="Ligne 12" x2="72" transform="translate(1474.5 620.5)" fill="none" stroke="#000" stroke-width="1"/>
    <line id="Ligne_13" data-name="Ligne 13" x2="93" transform="translate(1484.5 648.5)" fill="none" stroke="#0d0d0d" stroke-width="1"/>
    <circle id="Ellipse_310" data-name="Ellipse 310" cx="6" cy="6" r="6" transform="translate(1554 850)" fill="rgba(3,3,3,0.18)"/>
    <circle id="Ellipse_311" data-name="Ellipse 311" cx="6" cy="6" r="6" transform="translate(1554 868)" fill="rgba(3,3,3,0.18)"/>
    <ellipse id="Ellipse_312" data-name="Ellipse 312" cx="6" cy="5.5" rx="6" ry="5.5" transform="translate(1554 887)" fill="rgba(3,3,3,0.18)"/>
    <circle id="Ellipse_313" data-name="Ellipse 313" cx="6" cy="6" r="6" transform="translate(1554 905)" fill="rgba(3,3,3,0.18)"/>
    <circle id="Ellipse_314" data-name="Ellipse 314" cx="6" cy="6" r="6" transform="translate(1554 923)" fill="rgba(3,3,3,0.18)"/>
    <circle id="Ellipse_315" data-name="Ellipse 315" cx="6" cy="6" r="6" transform="translate(1554 941)" fill="rgba(3,3,3,0.18)"/>
    <circle id="Ellipse_316" data-name="Ellipse 316" cx="6" cy="6" r="6" transform="translate(1573 850)" fill="rgba(3,3,3,0.18)"/>
    <circle id="Ellipse_322" data-name="Ellipse 322" cx="6" cy="6" r="6" transform="translate(1554 960)" fill="rgba(3,3,3,0.18)"/>
    <circle id="Ellipse_323" data-name="Ellipse 323" cx="6" cy="6" r="6" transform="translate(1573 868)" fill="rgba(3,3,3,0.18)"/>
    <ellipse id="Ellipse_324" data-name="Ellipse 324" cx="6" cy="5.5" rx="6" ry="5.5" transform="translate(1573 887)" fill="rgba(3,3,3,0.18)"/>
    <circle id="Ellipse_325" data-name="Ellipse 325" cx="6" cy="6" r="6" transform="translate(1573 905)" fill="rgba(3,3,3,0.18)"/>
    <circle id="Ellipse_326" data-name="Ellipse 326" cx="6" cy="6" r="6" transform="translate(1573 923)" fill="rgba(3,3,3,0.18)"/>
    <circle id="Ellipse_327" data-name="Ellipse 327" cx="6" cy="6" r="6" transform="translate(1573 941)" fill="rgba(3,3,3,0.18)"/>
    <circle id="Ellipse_328" data-name="Ellipse 328" cx="6" cy="6" r="6" transform="translate(1573 960)" fill="rgba(3,3,3,0.18)"/>
    <circle id="Ellipse_329" data-name="Ellipse 329" cx="6" cy="6" r="6" transform="translate(1591 850)" fill="rgba(3,3,3,0.18)"/>
    <circle id="Ellipse_330" data-name="Ellipse 330" cx="6" cy="6" r="6" transform="translate(1591 868)" fill="rgba(3,3,3,0.18)"/>
    <ellipse id="Ellipse_331" data-name="Ellipse 331" cx="6" cy="5.5" rx="6" ry="5.5" transform="translate(1591 887)" fill="rgba(3,3,3,0.18)"/>
    <circle id="Ellipse_332" data-name="Ellipse 332" cx="6" cy="6" r="6" transform="translate(1591 905)" fill="rgba(3,3,3,0.18)"/>
    <circle id="Ellipse_333" data-name="Ellipse 333" cx="6" cy="6" r="6" transform="translate(1591 923)" fill="rgba(3,3,3,0.18)"/>
    <circle id="Ellipse_334" data-name="Ellipse 334" cx="6" cy="6" r="6" transform="translate(1591 941)" fill="rgba(3,3,3,0.18)"/>
    <circle id="Ellipse_335" data-name="Ellipse 335" cx="6" cy="6" r="6" transform="translate(1591 960)" fill="rgba(3,3,3,0.18)"/>
    <circle id="Ellipse_348" data-name="Ellipse 348" cx="6" cy="6" r="6" transform="translate(1554 978)" fill="rgba(3,3,3,0.18)"/>
    <circle id="Ellipse_349" data-name="Ellipse 349" cx="6" cy="6" r="6" transform="translate(1573 978)" fill="rgba(3,3,3,0.18)"/>
    <circle id="Ellipse_350" data-name="Ellipse 350" cx="6" cy="6" r="6" transform="translate(1591 978)" fill="rgba(3,3,3,0.18)"/>
    <circle id="Ellipse_351" data-name="Ellipse 351" cx="6" cy="6" r="6" transform="matrix(-0.017, -1, 1, -0.017, 1480.01, 1010.162)" fill="rgba(3,3,3,0.18)"/>
    <circle id="Ellipse_352" data-name="Ellipse 352" cx="6" cy="6" r="6" transform="matrix(-0.017, -1, 1, -0.017, 1498.007, 1009.848)" fill="rgba(3,3,3,0.18)"/>
    <ellipse id="Ellipse_353" data-name="Ellipse 353" cx="6" cy="5.5" rx="6" ry="5.5" transform="matrix(-0.017, -1, 1, -0.017, 1517.005, 1009.516)" fill="rgba(3,3,3,0.18)"/>
    <circle id="Ellipse_354" data-name="Ellipse 354" cx="6" cy="6" r="6" transform="matrix(-0.017, -1, 1, -0.017, 1535.002, 1009.202)" fill="rgba(3,3,3,0.18)"/>
    <circle id="Ellipse_355" data-name="Ellipse 355" cx="6" cy="6" r="6" transform="matrix(-0.017, -1, 1, -0.017, 1479.679, 991.165)" fill="rgba(3,3,3,0.18)"/>
    <circle id="Ellipse_356" data-name="Ellipse 356" cx="6" cy="6" r="6" transform="matrix(-0.017, -1, 1, -0.017, 1497.676, 990.851)" fill="rgba(3,3,3,0.18)"/>
    <ellipse id="Ellipse_357" data-name="Ellipse 357" cx="6" cy="5.5" rx="6" ry="5.5" transform="matrix(-0.017, -1, 1, -0.017, 1516.673, 990.519)" fill="rgba(3,3,3,0.18)"/>
    <circle id="Ellipse_358" data-name="Ellipse 358" cx="6" cy="6" r="6" transform="matrix(-0.017, -1, 1, -0.017, 1534.67, 990.205)" fill="rgba(3,3,3,0.18)"/>
    <circle id="Ellipse_359" data-name="Ellipse 359" cx="6" cy="6" r="6" transform="matrix(-0.017, -1, 1, -0.017, 1479.365, 973.167)" fill="rgba(3,3,3,0.18)"/>
    <circle id="Ellipse_360" data-name="Ellipse 360" cx="6" cy="6" r="6" transform="matrix(-0.017, -1, 1, -0.017, 1497.362, 972.853)" fill="rgba(3,3,3,0.18)"/>
    <ellipse id="Ellipse_361" data-name="Ellipse 361" cx="6" cy="5.5" rx="6" ry="5.5" transform="matrix(-0.017, -1, 1, -0.017, 1516.359, 972.522)" fill="rgba(3,3,3,0.18)"/>
    <circle id="Ellipse_362" data-name="Ellipse 362" cx="6" cy="6" r="6" transform="matrix(-0.017, -1, 1, -0.017, 1534.356, 972.208)" fill="rgba(3,3,3,0.18)"/>
    <g id="Status_Bar" data-name="Status Bar" transform="translate(1230.159 342)">
      <rect id="Rectangle" width="301" height="40" transform="translate(-0.159)" fill="none"/>
      <g id="Battery" transform="translate(261.841 17.333)">
        <g id="Border" fill="#fff" stroke="#fff" stroke-miterlimit="10" stroke-width="1" opacity="0.35">
          <rect width="26.803" height="14.249" rx="2.667" stroke="none"/>
          <rect x="0.5" y="0.5" width="25.803" height="13.249" rx="2.167" fill="none"/>
        </g>
        <path id="Cap" d="M0,0V4A2.17,2.17,0,0,0,1.328,2,2.17,2.17,0,0,0,0,0" transform="translate(27.803 5.125)" fill="#fff" opacity="0.4"/>
        <rect id="Capacity" width="22" height="10.249" rx="1.333" transform="translate(2 2)" fill="#fff"/>
      </g>
      <path id="Wifi" d="M8.637,12.966a.346.346,0,0,1-.25-.11l-2.26-2.384a.382.382,0,0,1,.011-.54,3.741,3.741,0,0,1,5,0,.376.376,0,0,1,.117.267.382.382,0,0,1-.106.272l-2.26,2.384A.342.342,0,0,1,8.637,12.966ZM12.6,8.782a.345.345,0,0,1-.242-.1,5.368,5.368,0,0,0-7.448,0,.342.342,0,0,1-.491-.007L3.119,7.3a.393.393,0,0,1,0-.543,7.839,7.839,0,0,1,11.03,0,.389.389,0,0,1,.112.27.4.4,0,0,1-.106.272L12.853,8.675A.341.341,0,0,1,12.6,8.782Zm3.008-3.174a.336.336,0,0,1-.242-.1A9.466,9.466,0,0,0,1.9,5.5a.336.336,0,0,1-.242.1A.341.341,0,0,1,1.413,5.5L.106,4.121a.393.393,0,0,1,0-.54,11.942,11.942,0,0,1,17.055,0,.393.393,0,0,1,.108.269.387.387,0,0,1-.106.27L15.859,5.5A.34.34,0,0,1,15.612,5.608Z" transform="translate(240.535 18.267)" fill="#fff"/>
      <path id="Cellular_Connection" data-name="Cellular Connection" d="M17.883,13.667H16.765a1.209,1.209,0,0,1-1.118-1.281V1.281A1.209,1.209,0,0,1,16.765,0h1.118A1.209,1.209,0,0,1,19,1.281v11.1A1.209,1.209,0,0,1,17.883,13.667Zm-5.215,0H11.549a1.209,1.209,0,0,1-1.118-1.281V4.271A1.209,1.209,0,0,1,11.549,2.99h1.119a1.209,1.209,0,0,1,1.118,1.281v8.115A1.209,1.209,0,0,1,12.667,13.667Zm-5.217,0H6.333a1.209,1.209,0,0,1-1.118-1.281V7.26A1.209,1.209,0,0,1,6.333,5.979H7.451A1.21,1.21,0,0,1,8.569,7.26v5.126A1.21,1.21,0,0,1,7.451,13.667Zm-5.215,0H1.118A1.209,1.209,0,0,1,0,12.386V9.823A1.21,1.21,0,0,1,1.118,8.541H2.235A1.21,1.21,0,0,1,3.353,9.823v2.562A1.209,1.209,0,0,1,2.235,13.667Z" transform="translate(213.507 17.916)" fill="#fff"/>
      <g id="Time_Style" data-name="Time Style" transform="translate(21 13.114)">
        <text id="Time" fill="#fff" font-size="14" font-family="SegoeUI, Segoe UI"><tspan x="14.582" y="15" letter-spacing="-0.02em">9:4</tspan><tspan y="15">1</tspan></text>
      </g>
    </g>
    <circle id="Ellipse_385" data-name="Ellipse 385" cx="3.5" cy="3.5" r="3.5" transform="translate(1337 642)" fill="#fff"/>
    <circle id="Ellipse_386" data-name="Ellipse 386" cx="3.5" cy="3.5" r="3.5" transform="translate(1371 642)" fill="#fff"/>
    <circle id="Ellipse_387" data-name="Ellipse 387" cx="3.5" cy="3.5" r="3.5" transform="translate(1405 642)" fill="#fff"/>
  </g>
</svg>
